<svg width="24" height="24" viewBox="0 0 24 24" fill="none" xmlns="http://www.w3.org/2000/svg">
<g clip-path="url(#clip0_5297_5407)">
<mask id="mask0_5297_5407" style="mask-type:luminance" maskUnits="userSpaceOnUse" x="0" y="0" width="24" height="24">
<path d="M0 0H24V24H0V0Z" fill="white"/>
</mask>
<g mask="url(#mask0_5297_5407)">
<path d="M18.9475 7.61765C18.9475 11.6844 15.7896 12.316 15.7896 16.1061C15.7896 18.0627 13.8172 18.2275 12.3159 18.2275C11.0193 18.2275 8.15631 17.7355 8.15631 16.1048C8.15631 12.316 5.05273 11.6844 5.05273 7.61765C5.05273 3.80859 8.39063 0.720802 12.0525 0.720802C15.7157 0.720802 18.9475 3.80859 18.9475 7.61765Z" fill="#FFD983"/>
<path d="M14.6321 21.1584C14.6321 21.6813 13.2211 22.7373 12.0003 22.7373C10.7795 22.7373 9.36914 21.6813 9.36914 21.1584C9.36914 20.6354 10.7795 20.8426 12.0003 20.8426C13.2211 20.8426 14.6321 20.6354 14.6321 21.1584Z" fill="#CCD6DD"/>
<path d="M14.9734 7.13278C14.9148 7.07408 14.8452 7.02751 14.7686 6.99573C14.692 6.96396 14.6098 6.9476 14.5269 6.9476C14.4439 6.9476 14.3618 6.96396 14.2852 6.99573C14.2086 7.02751 14.139 7.07408 14.0804 7.13278L12.0006 9.21257L9.92078 7.13278C9.86214 7.07414 9.79253 7.02763 9.71592 6.99589C9.6393 6.96416 9.55718 6.94782 9.47426 6.94782C9.39133 6.94782 9.30921 6.96416 9.2326 6.99589C9.15598 7.02763 9.08637 7.07414 9.02773 7.13278C8.96909 7.19142 8.92258 7.26103 8.89084 7.33765C8.85911 7.41426 8.84277 7.49638 8.84277 7.57931C8.84277 7.66224 8.85911 7.74435 8.89084 7.82096C8.92258 7.89758 8.96909 7.96719 9.02773 8.02583L11.369 10.3671V17.053C11.369 17.2205 11.4355 17.3811 11.554 17.4996C11.6724 17.618 11.8331 17.6846 12.0006 17.6846C12.1681 17.6846 12.3287 17.618 12.4472 17.4996C12.5656 17.3811 12.6322 17.2205 12.6322 17.053V10.3671L14.9734 8.02583C15.0321 7.96723 15.0787 7.89763 15.1105 7.82101C15.1422 7.74439 15.1586 7.66226 15.1586 7.57931C15.1586 7.49636 15.1422 7.41423 15.1105 7.33761C15.0787 7.26099 15.0321 7.19138 14.9734 7.13278Z" fill="#FFCC4D"/>
<path d="M15.7899 20.2115C15.7899 20.5465 15.6568 20.8678 15.4199 21.1046C15.183 21.3415 14.8617 21.4746 14.5267 21.4746H9.4741C9.13909 21.4746 8.8178 21.3415 8.58091 21.1046C8.34402 20.8678 8.21094 20.5465 8.21094 20.2115V16.422H15.7899V20.2115Z" fill="#99AAB5"/>
<path d="M8.20994 20.8428C8.05173 20.8423 7.89944 20.7825 7.7832 20.6752C7.66697 20.5679 7.59524 20.4208 7.58222 20.2632C7.5692 20.1055 7.61583 19.9487 7.71289 19.8237C7.80995 19.6988 7.95036 19.6148 8.10636 19.5885L15.6859 18.3253C15.7678 18.3112 15.8516 18.3135 15.9325 18.332C16.0135 18.3506 16.0899 18.385 16.1575 18.4333C16.225 18.4815 16.2823 18.5427 16.3261 18.6133C16.3698 18.6839 16.3991 18.7625 16.4123 18.8445C16.4259 18.9262 16.4233 19.0099 16.4046 19.0907C16.3859 19.1715 16.3514 19.2478 16.3032 19.3152C16.255 19.3827 16.194 19.44 16.1236 19.4838C16.0532 19.5277 15.9749 19.5572 15.8931 19.5708L8.31478 20.8339C8.28016 20.84 8.24508 20.8429 8.20994 20.8428Z" fill="#CCD6DD"/>
<path d="M8.20994 18.3164C8.05173 18.316 7.89944 18.2562 7.7832 18.1488C7.66697 18.0415 7.59524 17.8945 7.58222 17.7368C7.5692 17.5791 7.61583 17.4223 7.71289 17.2974C7.80995 17.1724 7.95036 17.0885 8.10636 17.0621L15.6859 15.7989C15.7678 15.7849 15.8515 15.7873 15.9324 15.8059C16.0134 15.8244 16.0898 15.8588 16.1573 15.9071C16.2248 15.9554 16.2821 16.0165 16.3259 16.0871C16.3697 16.1576 16.399 16.2361 16.4123 16.3181C16.4259 16.3999 16.4233 16.4835 16.4046 16.5643C16.3859 16.6451 16.3514 16.7214 16.3032 16.7888C16.255 16.8563 16.194 16.9136 16.1236 16.9574C16.0532 17.0013 15.9749 17.0308 15.8931 17.0444L8.31478 18.3076C8.28016 18.3136 8.24508 18.3165 8.20994 18.3164Z" fill="#CCD6DD"/>
</g>
</g>
<defs>
<clipPath id="clip0_5297_5407">
<rect width="24" height="24" fill="white"/>
</clipPath>
</defs>
</svg>
