<svg width="60" height="61" viewBox="0 0 60 61" fill="none" xmlns="http://www.w3.org/2000/svg">
<path d="M57.5 2.54175L2.50001 58.4584" stroke="#97A2B9" stroke-width="5" stroke-linecap="round" stroke-linejoin="round"/>
<path d="M18.1992 28.1108C16.1515 29.1269 14.2366 30.3991 12.4992 31.8979" stroke="#97A2B9" stroke-width="5" stroke-linecap="round" stroke-linejoin="round"/>
<path d="M47.5 31.8978C43.7948 28.7483 39.3353 26.6524 34.575 25.8232" stroke="#97A2B9" stroke-width="5" stroke-linecap="round" stroke-linejoin="round"/>
<path d="M33.2246 12.8355C27.8686 12.3967 22.4805 13.0596 17.382 14.7845C12.2835 16.5094 7.57909 19.261 3.54961 22.8751" stroke="#97A2B9" stroke-width="5" stroke-linecap="round" stroke-linejoin="round"/>
<path d="M56.4492 22.8749C52.9813 19.7585 49.005 17.2813 44.6992 15.5549" stroke="#97A2B9" stroke-width="5" stroke-linecap="round" stroke-linejoin="round"/>
<path d="M38.6758 40.9462C36.1378 39.1131 33.1016 38.1282 29.9883 38.1282C26.875 38.1282 23.8388 39.1131 21.3008 40.9462" stroke="#97A2B9" stroke-width="5" stroke-linecap="round" stroke-linejoin="round"/>
<path d="M30 50.8333H29.973" stroke="#97A2B9" stroke-width="5" stroke-linecap="round" stroke-linejoin="round"/>
</svg>
